<svg width="32" height="32" viewBox="0 0 32 32" fill="none" xmlns="http://www.w3.org/2000/svg">
<circle cx="15.8732" cy="16.0001" r="15.8732" fill="black" fill-opacity="0.5"/>
<path d="M16.498 14.3333C16.498 14.1676 16.4322 14.0086 16.315 13.8914C16.1978 13.7742 16.0388 13.7083 15.873 13.7083C15.7073 13.7083 15.5483 13.7742 15.4311 13.8914C15.3139 14.0086 15.248 14.1676 15.248 14.3333V14.9175L14.7422 14.6258C14.5992 14.5497 14.4322 14.532 14.2765 14.5766C14.1207 14.6212 13.9883 14.7245 13.9073 14.8648C13.8262 15.0051 13.8028 15.1713 13.842 15.3285C13.8811 15.4858 13.9798 15.6216 14.1172 15.7075L14.623 15.9991L14.1172 16.2916C13.9736 16.3745 13.8687 16.5111 13.8257 16.6713C13.7828 16.8315 13.8052 17.0022 13.888 17.1458C13.9709 17.2895 14.1075 17.3943 14.2677 17.4373C14.4279 17.4803 14.5986 17.4579 14.7422 17.375L15.248 17.0825V17.6666C15.248 17.8324 15.3139 17.9914 15.4311 18.1086C15.5483 18.2258 15.7073 18.2916 15.873 18.2916C16.0388 18.2916 16.1978 18.2258 16.315 18.1086C16.4322 17.9914 16.498 17.8324 16.498 17.6666V17.0833L17.0039 17.375C17.1475 17.4579 17.3182 17.4803 17.4784 17.4373C17.6386 17.3943 17.7752 17.2895 17.858 17.1458C17.9409 17.0022 17.9633 16.8315 17.9204 16.6713C17.8774 16.5111 17.7725 16.3745 17.6289 16.2916L17.123 16L17.6289 15.7083C17.7725 15.6254 17.8774 15.4889 17.9204 15.3287C17.9633 15.1685 17.9409 14.9978 17.858 14.8541C17.7752 14.7105 17.6386 14.6056 17.4784 14.5627C17.3182 14.5197 17.1475 14.5421 17.0039 14.625L16.498 14.9166V14.3333ZM11.4839 13.7083C11.6496 13.7083 11.8086 13.7742 11.9258 13.8914C12.043 14.0086 12.1089 14.1676 12.1089 14.3333V14.9166L12.6139 14.625C12.7575 14.5421 12.9282 14.5197 13.0884 14.5627C13.2486 14.6056 13.3852 14.7105 13.468 14.8541C13.5509 14.9978 13.5733 15.1685 13.5304 15.3287C13.4874 15.4889 13.3825 15.6254 13.2389 15.7083L12.733 16L13.2389 16.2916C13.31 16.3327 13.3724 16.3873 13.4224 16.4525C13.4724 16.5176 13.5091 16.592 13.5304 16.6713C13.5516 16.7506 13.5571 16.8333 13.5464 16.9147C13.5357 16.9962 13.5091 17.0747 13.468 17.1458C13.427 17.2169 13.3724 17.2793 13.3072 17.3293C13.2421 17.3793 13.1677 17.416 13.0884 17.4373C13.0091 17.4586 12.9264 17.464 12.845 17.4533C12.7635 17.4426 12.685 17.416 12.6139 17.375L12.1089 17.0833V17.6666C12.1089 17.8324 12.043 17.9914 11.9258 18.1086C11.8086 18.2258 11.6496 18.2916 11.4839 18.2916C11.3181 18.2916 11.1592 18.2258 11.0419 18.1086C10.9247 17.9914 10.8589 17.8324 10.8589 17.6666V17.0825L10.3522 17.3741C10.2092 17.4503 10.0422 17.4679 9.88647 17.4234C9.73071 17.3788 9.59835 17.2755 9.51729 17.1352C9.43623 16.9949 9.41282 16.8286 9.45198 16.6714C9.49114 16.5142 9.58982 16.3783 9.72721 16.2925L10.233 16L9.72721 15.7083C9.65608 15.6673 9.59373 15.6126 9.54372 15.5475C9.4937 15.4824 9.45701 15.408 9.43573 15.3287C9.41445 15.2494 9.409 15.1666 9.41969 15.0852C9.43038 15.0038 9.45701 14.9253 9.49805 14.8541C9.53909 14.783 9.59373 14.7207 9.65887 14.6706C9.724 14.6206 9.79835 14.5839 9.87767 14.5627C9.95699 14.5414 10.0397 14.5359 10.1211 14.5466C10.2026 14.5573 10.2811 14.5839 10.3522 14.625L10.8589 14.9175V14.3333C10.8589 14.1676 10.9247 14.0086 11.0419 13.8914C11.1592 13.7742 11.3181 13.7083 11.4839 13.7083ZM20.888 14.3333C20.888 14.1676 20.8222 14.0086 20.705 13.8914C20.5878 13.7742 20.4288 13.7083 20.263 13.7083C20.0973 13.7083 19.9383 13.7742 19.8211 13.8914C19.7039 14.0086 19.638 14.1676 19.638 14.3333V14.9175L19.1322 14.6258C18.9892 14.5497 18.8222 14.532 18.6665 14.5766C18.5107 14.6212 18.3783 14.7245 18.2973 14.8648C18.2162 15.0051 18.1928 15.1713 18.232 15.3285C18.2711 15.4858 18.3698 15.6216 18.5072 15.7075L19.013 15.9991L18.5064 16.2916C18.3627 16.3745 18.2579 16.5111 18.2149 16.6713C18.1719 16.8315 18.1943 17.0022 18.2772 17.1458C18.3601 17.2895 18.4966 17.3943 18.6568 17.4373C18.817 17.4803 18.9877 17.4579 19.1314 17.375L19.638 17.0825V17.6666C19.638 17.8324 19.7039 17.9914 19.8211 18.1086C19.9383 18.2258 20.0973 18.2916 20.263 18.2916C20.4288 18.2916 20.5878 18.2258 20.705 18.1086C20.8222 17.9914 20.888 17.8324 20.888 17.6666V17.0833L21.3939 17.375C21.5375 17.4579 21.7082 17.4803 21.8684 17.4373C22.0286 17.3943 22.1652 17.2895 22.248 17.1458C22.3309 17.0022 22.3533 16.8315 22.3104 16.6713C22.2674 16.5111 22.1625 16.3745 22.0189 16.2916L21.513 16L22.0189 15.7083C22.1625 15.6254 22.2674 15.4889 22.3104 15.3287C22.3533 15.1685 22.3309 14.9978 22.248 14.8541C22.1652 14.7105 22.0286 14.6056 21.8684 14.5627C21.7082 14.5197 21.5375 14.5421 21.3939 14.625L20.888 14.9166V14.3333Z" fill="white"/>
<path fill-rule="evenodd" clip-rule="evenodd" d="M14.1597 8.70831C12.628 8.70831 11.4147 8.70831 10.4655 8.83581C9.48887 8.96748 8.69804 9.24415 8.07387 9.86748C7.45054 10.4916 7.17387 11.2825 7.0422 12.2591C6.9147 13.2091 6.9147 14.4216 6.9147 15.9533V16.0466C6.9147 17.5783 6.9147 18.7916 7.0422 19.7408C7.17387 20.7175 7.45054 21.5083 8.07387 22.1325C8.69804 22.7558 9.48887 23.0325 10.4655 23.1641C11.4155 23.2916 12.628 23.2916 14.1597 23.2916H17.5864C19.118 23.2916 20.3314 23.2916 21.2805 23.1641C22.2572 23.0325 23.048 22.7558 23.6722 22.1325C24.2955 21.5083 24.5722 20.7175 24.7039 19.7408C24.8314 18.7908 24.8314 17.5783 24.8314 16.0466V15.9533C24.8314 14.4216 24.8314 13.2083 24.7039 12.2591C24.5722 11.2825 24.2955 10.4916 23.6722 9.86748C23.048 9.24415 22.2572 8.96748 21.2805 8.83581C20.3305 8.70831 19.118 8.70831 17.5864 8.70831H14.1597ZM8.95804 10.7516C9.31054 10.3991 9.79387 10.1875 10.6322 10.075C11.4889 9.95998 12.6172 9.95831 14.2064 9.95831H17.5397C19.1289 9.95831 20.258 9.95998 21.1147 10.075C21.9522 10.1875 22.4355 10.3991 22.788 10.7516C23.1405 11.1041 23.3522 11.5875 23.4647 12.4258C23.5797 13.2825 23.5814 14.4108 23.5814 16C23.5814 17.5891 23.5797 18.7175 23.4647 19.575C23.3522 20.4125 23.1405 20.8958 22.788 21.2483C22.4355 21.6008 21.9522 21.8125 21.1139 21.925C20.258 22.04 19.1289 22.0416 17.5397 22.0416H14.2064C12.6172 22.0416 11.4889 22.04 10.6314 21.925C9.79387 21.8125 9.31054 21.6008 8.95804 21.2483C8.60554 20.8958 8.39387 20.4125 8.28137 19.5741C8.16637 18.7175 8.1647 17.5891 8.1647 16C8.1647 14.4108 8.16637 13.2825 8.28137 12.425C8.39387 11.5875 8.60554 11.1041 8.95804 10.7516Z" fill="white"/>
</svg>
