<svg width="32" height="32" viewBox="0 0 32 32" fill="none" xmlns="http://www.w3.org/2000/svg">
<circle cx="15.8732" cy="16.0001" r="15.8732" fill="black" fill-opacity="0.5"/>
<path d="M9.87305 10C9.04055 10 8.37305 10.6675 8.37305 11.5V20.5C8.37305 21.3325 9.04055 22 9.87305 22H21.873C22.7055 22 23.373 21.3325 23.373 20.5V11.5C23.373 10.6675 22.7055 10 21.873 10H9.87305ZM9.87305 11.5H21.873V14.5H9.87305V11.5ZM9.87305 16H12.873V17.5H9.87305V16ZM14.373 16H21.873V17.5H14.373V16ZM9.87305 19H17.373V20.5H9.87305V19ZM18.873 19H21.873V20.5H18.873V19Z" fill="white"/>
</svg>
