<svg width="101" height="101" viewBox="0 0 101 101" fill="none" xmlns="http://www.w3.org/2000/svg">
<circle cx="50.4951" cy="50.6797" r="50" fill="#6DBDC5"/>
<path d="M56.7074 61.4067L54.3252 59.0731L70.3596 43.3659L67.8661 40.9235L70.2484 38.5898L75.124 43.3659L56.7074 61.4067Z" fill="white"/>
<path d="M73.7972 27.8322C75.2748 29.2797 75.2748 31.6267 73.7972 33.0742L71.4879 35.3364L66.1367 30.0944L68.446 27.8322C69.9237 26.3847 72.3195 26.3847 73.7972 27.8322Z" fill="white"/>
<path d="M73.7974 27.832C75.275 29.2795 75.275 31.6266 73.7974 33.0741L71.4881 35.3362L68.8125 32.7153L73.7974 27.832Z" fill="white"/>
<path d="M26.124 74.5328L29.895 67.0498L33.763 70.8388L26.124 74.5328Z" fill="white"/>
<path d="M26.124 74.5329L31.829 68.9443L33.763 70.8388L26.124 74.5329Z" fill="white"/>
<path d="M31.2932 69.4688L33.6597 71.787L44.1373 65.5735L74.2036 36.1208L69.7698 31.7774L65.336 27.4341L35.2697 56.8868L28.9268 67.1506L31.2932 69.4688Z" fill="white"/>
<path d="M31.2932 69.4687L33.6597 71.7869L44.1373 65.5734L74.2036 36.1207L69.7698 31.7773L31.2932 69.4687Z" fill="#F0F0F0"/>
<path d="M28.9268 67.1506L31.2932 69.4687L33.6597 71.787L44.1373 65.5734L35.2697 56.8867L28.9268 67.1506Z" fill="white"/>
<path d="M31.2939 69.4691L33.6604 71.7874L44.1381 65.5738L39.7042 61.2305L31.2939 69.4691Z" fill="white"/>
</svg>
