<svg width="100" height="100" viewBox="0 0 100 100" fill="none" xmlns="http://www.w3.org/2000/svg">
<circle cx="50" cy="50" r="50" fill="#A0A0A0"/>
<path d="M17 49.8596C17 55.8619 18.4896 61.3823 21.4689 66.4208C24.4482 71.4592 28.4351 75.4243 33.4298 78.3159V74.5042C33.4298 72.7517 33.7803 70.9116 34.4813 68.9838C31.5896 66.6617 29.3333 63.8358 27.7122 60.5061C26.0911 57.1763 25.2587 53.6275 25.2149 49.8596C25.2149 45.3907 26.3102 41.2723 28.5008 37.5044C30.6915 33.7365 33.6927 30.7572 37.5044 28.5666C41.3161 26.3759 45.4345 25.2587 49.8596 25.2149C54.2846 25.1711 58.403 26.2883 62.2148 28.5666C66.0265 30.8448 69.0276 33.8241 71.2183 37.5044C73.4089 41.1846 74.5042 45.303 74.5042 49.8596C74.5042 53.6713 73.6718 57.2201 72.0069 60.5061C70.342 63.792 68.0857 66.6179 65.2378 68.9838C65.9388 70.824 66.2893 72.6641 66.2893 74.5042V78.3159C71.284 75.4243 75.2709 71.4592 78.2502 66.4208C81.2295 61.3823 82.7191 55.8619 82.7191 49.8596C82.7191 45.3907 81.8429 41.1408 80.0904 37.11C78.3378 33.0793 76.0158 29.5743 73.1241 26.595C70.2325 23.6157 66.7494 21.2936 62.6748 19.6288C58.6002 17.9639 54.3285 17.0876 49.8596 17C45.3907 17 41.1408 17.8763 37.11 19.6288C33.0793 21.3813 29.5743 23.7033 26.595 26.595C23.6157 29.4866 21.2936 32.9917 19.6288 37.11C17.9639 41.2284 17.0876 45.4783 17 49.8596ZM29.3552 49.8596C29.3552 52.8826 29.9686 55.7086 31.1953 58.3373C32.4221 60.9661 34.1308 63.2663 36.3214 65.2378C37.9425 62.9158 40.0455 61.1194 42.6305 59.8489C41.0532 58.6659 39.8045 57.2201 38.8845 55.5114C37.9644 53.8027 37.5263 51.9188 37.5701 49.8596C37.5701 46.486 38.753 43.5943 41.1189 41.1846C43.4848 38.7749 46.3984 37.5701 49.8596 37.5701C53.3208 37.5701 56.2343 38.7749 58.6002 41.1846C60.9661 43.5943 62.1709 46.486 62.2148 49.8596C62.2148 51.8749 61.7547 53.7589 60.8347 55.5114C59.9146 57.2639 58.6659 58.7097 57.0887 59.8489C59.6736 61.1194 61.7766 62.9158 63.3977 65.2378C65.5883 63.3101 67.297 61.0099 68.5238 58.3373C69.7505 55.6647 70.3858 52.8388 70.4296 49.8596C70.4296 47.0994 69.882 44.4487 68.7867 41.9075C67.6913 39.3664 66.2236 37.1758 64.3835 35.3356C62.5433 33.4955 60.3527 32.0497 57.8116 30.9982C55.2704 29.9467 52.6198 29.399 49.8596 29.3552C46.1355 29.3552 42.6962 30.2753 39.5417 32.1154C36.3871 33.9555 33.9117 36.431 32.1154 39.5417C30.3191 42.6524 29.399 46.0917 29.3552 49.8596ZM37.5701 74.5042V82.7191H62.2148V74.5042C62.2148 71.1306 61.0099 68.239 58.6002 65.8293C56.1905 63.4196 53.277 62.2148 49.8596 62.2148C46.4422 62.2148 43.5286 63.4196 41.1189 65.8293C38.7092 68.239 37.5263 71.1306 37.5701 74.5042ZM41.6447 49.8596C41.6447 52.1378 42.4552 54.0875 44.0763 55.7086C45.6973 57.3296 47.6251 58.1183 49.8596 58.0744C52.094 58.0306 54.0218 57.242 55.6428 55.7086C57.2639 54.1751 58.0744 52.2254 58.0744 49.8596C58.0744 47.4937 57.2639 45.5659 55.6428 44.0763C54.0218 42.5866 52.094 41.7761 49.8596 41.6447C47.6251 41.5132 45.6973 42.3238 44.0763 44.0763C42.4552 45.8288 41.6447 47.7565 41.6447 49.8596Z" fill="white"/>
</svg>
