<svg width="101" height="101" viewBox="0 0 101 101" fill="none" xmlns="http://www.w3.org/2000/svg">
<circle cx="50.4951" cy="50.6797" r="50" fill="#61A9FE"/>
<path d="M27.8584 45.0478C27.8584 39.7123 27.8584 37.0445 29.5159 35.387C31.1735 33.7295 33.8412 33.7295 39.1767 33.7295H61.8134C67.1488 33.7295 69.8166 33.7295 71.4741 35.387C73.1317 37.0445 73.1317 39.7123 73.1317 45.0478V50.707C73.1317 53.3747 73.1317 54.7086 72.3029 55.5374C71.4741 56.3662 70.1403 56.3662 67.4726 56.3662H65.4918C65.0917 56.3662 64.8917 56.3662 64.7672 56.2419C64.643 56.1174 64.643 55.9174 64.643 55.5173V53.5366C64.643 50.8688 64.643 49.535 63.8142 48.7062C62.9854 47.8774 61.6515 47.8774 58.9838 47.8774H42.0063C39.3386 47.8774 38.0047 47.8774 37.1759 48.7062C36.3471 49.535 36.3471 50.8688 36.3471 53.5366V55.5173C36.3471 55.9174 36.3471 56.1174 36.2228 56.2419C36.0985 56.3662 35.8984 56.3662 35.4983 56.3662H30.688C29.3541 56.3662 28.6872 56.3661 28.2728 55.9519C27.8584 55.5374 27.8584 54.8704 27.8584 53.5366V45.0478Z" fill="white"/>
<path d="M36.3467 74.0836V53.5366C36.3467 50.8689 36.3467 49.535 37.1754 48.7062C38.0042 47.8774 39.3381 47.8774 42.0058 47.8774H58.9833C61.6511 47.8774 62.9849 47.8774 63.8137 48.7062C64.6425 49.535 64.6425 50.8689 64.6425 53.5366V74.0836C64.6425 75.0304 64.6425 75.5038 64.3318 75.7143C64.0208 75.9245 63.5814 75.7488 62.7023 75.3971L58.094 73.5539C57.8345 73.4501 57.7046 73.3983 57.5685 73.3983C57.4324 73.3983 57.3026 73.4501 57.0431 73.5539L51.02 75.963C50.7606 76.0669 50.6307 76.1187 50.4946 76.1187C50.3585 76.1187 50.2286 76.0669 49.9691 75.963L43.9461 73.5539C43.6866 73.4501 43.5569 73.3983 43.4206 73.3983C43.2844 73.3983 43.1547 73.4501 42.8952 73.5539L38.2869 75.3971C37.4078 75.7488 36.9683 75.9245 36.6575 75.7143C36.3467 75.5038 36.3467 75.0304 36.3467 74.0836Z" fill="white"/>
<path d="M43.4211 57.7808H54.7395" stroke="#61A9FE" stroke-width="5" stroke-linecap="round"/>
<path d="M43.4211 66.2695H57.5691" stroke="#61A9FE" stroke-width="5" stroke-linecap="round"/>
<path d="M36.3467 30.1617C36.3467 28.204 36.3467 27.2251 36.8102 26.5184C37.0229 26.1941 37.3001 25.917 37.6244 25.7043C38.3311 25.2407 39.31 25.2407 41.2677 25.2407H59.7216C61.6794 25.2407 62.6581 25.2407 63.3649 25.7043C63.6892 25.917 63.9662 26.1941 64.179 26.5184C64.6425 27.2251 64.6425 28.204 64.6425 30.1617C64.6425 30.4554 64.6425 30.6022 64.5729 30.7082C64.5412 30.7569 64.4996 30.7984 64.4509 30.8304C64.3448 30.8999 64.198 30.8999 63.9043 30.8999H37.0848C36.7912 30.8999 36.6444 30.8999 36.5383 30.8304C36.4897 30.7984 36.4481 30.7569 36.4162 30.7082C36.3467 30.6022 36.3467 30.4554 36.3467 30.1617Z" fill="white"/>
</svg>
